<?xml version="1.0" encoding="UTF-8" standalone="no"?>
<svg
   xmlns:dc="http://purl.org/dc/elements/1.1/"
   xmlns:cc="http://creativecommons.org/ns#"
   xmlns:rdf="http://www.w3.org/1999/02/22-rdf-syntax-ns#"
   xmlns:svg="http://www.w3.org/2000/svg"
   xmlns="http://www.w3.org/2000/svg"
   version="1.1"
   id="svg869"
   width="133.96877"
   height="116.58515"
   viewBox="0 0 133.96877 116.58515">
  <metadata
     id="metadata875">
    <rdf:RDF>
      <cc:Work
         rdf:about="">
        <dc:format>image/svg+xml</dc:format>
        <dc:type
           rdf:resource="http://purl.org/dc/dcmitype/StillImage" />
        <dc:title></dc:title>
      </cc:Work>
    </rdf:RDF>
  </metadata>
  <defs
     id="defs873" />
  <ellipse
     style="opacity:1;fill:#c10000;fill-opacity:1;stroke:none;stroke-width:13.81511116;stroke-linecap:round;stroke-linejoin:round;stroke-miterlimit:4;stroke-dasharray:none;stroke-opacity:1"
     id="path823"
     cx="63.999973"
     cy="62.585175"
     rx="1.5"
     ry="6" />
  <ellipse
     style="opacity:1;fill:#c10000;fill-opacity:1;stroke:none;stroke-width:13.81511116;stroke-linecap:round;stroke-linejoin:round;stroke-miterlimit:4;stroke-dasharray:none;stroke-opacity:1"
     id="path823-5"
     cx="85.999969"
     cy="62.585175"
     rx="1.5"
     ry="6" />
  <path
     style="fill:#000000;stroke-width:1.04707229"
     d="M 74.999988,43.585132 C 58.431393,43.585132 45,52.539452 45,63.585152 c 0,11.0457 13.431493,20 29.999988,20 16.5685,0 30.000002,-8.9543 30.000002,-20 0,-11.0457 -13.431402,-20.00002 -30.000002,-20.00002 z M 51.5,56.704352 c 0,0 5.465776,3.261043 8.5,4.8808 l 11.999988,7 z m 46.999988,0 -20.5,11.8808 12.000012,-7 z"
     id="path19-5">
    <animate
       fill="freeze"
       to="M 74.999988,43.585132 C 58.431393,43.585132 45,52.539452 45,63.585152 c 0,11.0457 13.431493,20 29.999988,20 16.5685,0 30.000002,-8.9543 30.000002,-20 0,-11.0457 -13.431402,-20.00002 -30.000002,-20.00002 z M 51.5,56.704352 l 8.5,4.8808 11.999988,7 z m 46.999988,0 -20.5,11.8808 12.000012,-7 z"
       from="M 74.999988,43.585132 C 58.431393,43.585132 45,52.539452 45,63.585152 c 0,11.0457 13.431493,20 29.999988,20 16.5685,0 30.000002,-8.9543 30.000002,-20 0,-11.0457 -13.431402,-20.00002 -30.000002,-20.00002 z M 51.5,56.704352 c 6.164993,1.8328 11.385293,2.4513 17.999988,2.6738 l 2.5,9.207 c -8.076095,0 -16.301785,-1.0537 -20.499988,-11.8808 z m 46.999988,0 c -5.0231,8.6868 -11.8961,11.8808 -20.5,11.8808 l 2.5,-9.207 c 6.1956,-0.073 11.9489,-0.9322 18,-2.6738 z"
       dur="0.5s"
       begin="1s;eyesOpened.end"
       attributeName="d"
       id="eyesClose" />
    <animate
       fill="freeze"
       to="M 74.999988,43.585132 C 58.431393,43.585132 45,52.539452 45,63.585152 c 0,11.0457 13.431493,20 29.999988,20 16.5685,0 30.000002,-8.9543 30.000002,-20 0,-11.0457 -13.431402,-20.00002 -30.000002,-20.00002 z M 51.5,56.704352 c 6.164993,1.8328 11.385293,2.4513 17.999988,2.6738 l 2.5,9.207 c -8.076095,0 -16.301785,-1.0537 -20.499988,-11.8808 z m 46.999988,0 c -5.0231,8.6868 -11.8961,11.8808 -20.5,11.8808 l 2.5,-9.207 c 6.1956,-0.073 11.9489,-0.9322 18,-2.6738 z"
       from="M 74.999988,43.585132 C 58.431393,43.585132 45,52.539452 45,63.585152 c 0,11.0457 13.431493,20 29.999988,20 16.5685,0 30.000002,-8.9543 30.000002,-20 0,-11.0457 -13.431402,-20.00002 -30.000002,-20.00002 z M 51.5,56.704352 l 8.5,4.8808 11.999988,7 z m 46.999988,0 -20.5,11.8808 12.000012,-7 z"
       dur="0.5s"
       begin="eyesClose.end"
       attributeName="d"
       id="eyesOpen" />
    <animate
       fill="freeze"
       to="M 74.999988,43.585132 C 58.431393,43.585132 45,52.539452 45,63.585152 c 0,11.0457 13.431493,20 29.999988,20 16.5685,0 30.000002,-8.9543 30.000002,-20 0,-11.0457 -13.431402,-20.00002 -30.000002,-20.00002 z M 51.5,56.704352 c 6.164993,1.8328 11.385293,2.4513 17.999988,2.6738 l 2.5,9.207 c -8.076095,0 -16.301785,-1.0537 -20.499988,-11.8808 z m 46.999988,0 c -5.0231,8.6868 -11.8961,11.8808 -20.5,11.8808 l 2.5,-9.207 c 6.1956,-0.073 11.9489,-0.9322 18,-2.6738 z"
       from="M 74.999988,43.585132 C 58.431393,43.585132 45,52.539452 45,63.585152 c 0,11.0457 13.431493,20 29.999988,20 16.5685,0 30.000002,-8.9543 30.000002,-20 0,-11.0457 -13.431402,-20.00002 -30.000002,-20.00002 z M 51.5,56.704352 c 6.164993,1.8328 11.385293,2.4513 17.999988,2.6738 l 2.5,9.207 c -8.076095,0 -16.301785,-1.0537 -20.499988,-11.8808 z m 46.999988,0 c -5.0231,8.6868 -11.8961,11.8808 -20.5,11.8808 l 2.5,-9.207 c 6.1956,-0.073 11.9489,-0.9322 18,-2.6738 z"
       dur="2s"
       begin="eyesOpen.end"
       attributeName="d"
       id="eyesOpened" />
  </path>
  <path
     style="fill:#000000;fill-opacity:1;stroke:none;stroke-width:0.97483498px;stroke-linecap:butt;stroke-linejoin:miter;stroke-opacity:1"
     d="m 50,58.08259 c 0,0 -3.6927,-5.352 -4.5,-9.50007 -0.4494,-2.3091 -0.5106,-3.41 -0.5,-5 0.018,-2.72941 0.5697,-9.48876 3,-10 2.734,-0.57513 3.3443,2.84074 6,5 4.7208,3.83828 14.0011,9.99453 14.0011,9.99453 L 52.824,52.48639 Z"
     id="path881-7" />
  <path
     style="fill:#000000;fill-opacity:1;stroke:none;stroke-width:0.99284256px;stroke-linecap:butt;stroke-linejoin:miter;stroke-opacity:1"
     d="m 60,78.58519 c 0,0 -15,12.4998 -15,25 0,12.5 9,13 9,13 h 42 c 0,0 9,-0.49 9,-13 0,-12.5 -15,-25 -15,-25 z"
     id="path951-5" />
  <path
     style="fill:none;stroke:#000000;stroke-width:13;stroke-linecap:round;stroke-linejoin:miter;stroke-miterlimit:4;stroke-dasharray:none;stroke-opacity:1"
     d="m 56,110.08519 c 0,0 -12.9386,0.3376 -20,-5.5 -6.1779,-5.1072 -10.9201,-11 -11,-26 -0.09,-16.8155 9.8136,-24.9587 10,-40.00004 0.1296,-10.45461 -10,-30 -10,-30"
     id="path961-6">
    <animate
       fill="freeze"
       to="m 56,110.08519 c 0,0 -12.9386,0.3376 -20,-5.5 -6.1779,-5.1072 -10.9201,-11 -11,-26 -0.09,-16.8155 -0.1864,-24.9587 0,-40.00004 -0.04506,-20.235408 10,-30 10,-30"
       from="m 56,110.08519 c 0,0 -12.9386,0.3376 -20,-5.5 -6.1779,-5.1072 -10.9201,-11 -11,-26 -0.09,-16.8155 9.8136,-24.9587 10,-40.00004 0.1296,-10.45461 -10,-30 -10,-30"
       dur="1.5s"
       begin="0s;tailWiggleBack.end"
       attributeName="d"
       id="tailWiggle" />
    <animate
       fill="freeze"
       to="m 56,110.08519 c 0,0 -12.9386,0.3376 -20,-5.5 -6.1779,-5.1072 -10.9201,-11 -11,-26 -0.09,-16.8155 9.8136,-24.9587 10,-40.00004 0.1296,-10.45461 -10,-30 -10,-30"
       from="m 56,110.08519 c 0,0 -12.9386,0.3376 -20,-5.5 -6.1779,-5.1072 -10.9201,-11 -11,-26 -0.09,-16.8155 -0.1864,-24.9587 0,-40.00004 -0.04506,-20.235408 10,-30 10,-30"
       dur="1s"
       begin="tailWiggle.end"
       attributeName="d"
       id="tailWiggleBack" />
  </path>
  <path
     style="fill:#000000;fill-opacity:1;stroke:none;stroke-width:0.97483498px;stroke-linecap:butt;stroke-linejoin:miter;stroke-opacity:1"
     d="m 100.0011,58.08259 c 0,0 3.6927,-5.352 4.5,-9.50007 0.4494,-2.3091 0.5106,-3.41 0.5,-5 -0.018,-2.72941 -0.5697,-9.48876 -3,-10 -2.734,-0.57513 -3.3443,2.84074 -6,5 C 91.2803,42.4208 82,48.57705 82,48.57705 l 15.1771,3.90924 z"
     id="path881-7-3" />
  <path
     style="fill:#c10000;fill-opacity:1;stroke:none;stroke-width:1.1394254px;stroke-linecap:butt;stroke-linejoin:miter;stroke-opacity:1"
     d="m 71.5468,70.46309 c 1.1841,-1.2608 3.4639,1.1244 3.4639,1.1244 0,0 2.3093,-2.4109 3.4639,-1.1244 0.9986,1.1126 0.4434,2.2857 -0.5773,3.3733 -0.8315,0.8858 -2.8866,2.2488 -2.8866,2.2488 0,0 -1.8683,-1.0765 -2.8866,-2.2488 -1.0054,-1.1576 -1.6332,-2.2489 -0.5773,-3.3733 z"
     id="path980-9" />
</svg>
