<svg xmlns="http://www.w3.org/2000/svg" viewBox="0 0 41.188 31.755" height="120.02" width="155.669" xmlns:v="https://vecta.io/nano"><g transform="matrix(.771114 .771114 -.771114 .771114 222.37538 -212.924605)" fill="#fff"><path d="M-.1 282.47a14.56 14.56 0 0 1 4.262-10.506 14.56 14.56 0 0 1 11.664-4.178l-5.28 5.28c-1.474-.695-3.3-.442-4.512.77a3.96 3.96 0 0 0-1.154 2.808c0 1.02.385 2.037 1.154 2.807a3.99 3.99 0 0 0 5.615 0c1.212-1.212 1.465-3.04.77-4.514l6.518-6.517a14.56 14.56 0 0 1 4.828 2.66L10.55 284.296c-1.474-.695-3.3-.44-4.512.77-.77.77-1.154 1.788-1.154 2.807s.385 2.038 1.154 2.808a3.99 3.99 0 0 0 5.615 0c1.212-1.212 1.465-3.04.77-4.514l13.22-13.22a14.56 14.56 0 0 1 2.665 4.823l-6.527 6.527c-1.474-.695-3.3-.44-4.512.77a3.99 3.99 0 0 0 0 5.615 3.99 3.99 0 0 0 5.615 0c1.212-1.212 1.466-3.04.77-4.515l5.3-5.3c.415 4.32-1.12 8.602-4.187 11.674a14.56 14.56 0 0 1-20.587 0c-2.678-2.678-4.207-6.294-4.262-10.08zm7.6-5.827c0-.336.132-.672.395-.936.528-.528 1.345-.528 1.873 0s.526 1.344-.002 1.872a1.3 1.3 0 0 1-1.871 0 1.32 1.32 0 0 1-.396-.936zm0 11.23c0-.336.132-.672.395-.936.528-.528 1.346-.528 1.873 0s.526 1.344-.002 1.872a1.3 1.3 0 0 1-1.871 0 1.32 1.32 0 0 1-.397-.936zm11.23 0c0-.336.13-.672.395-.936.528-.528 1.346-.528 1.873 0s.526 1.344-.002 1.872a1.3 1.3 0 0 1-1.87 0 1.32 1.32 0 0 1-.396-.936z"/><path d="M18.925 268.42l6.174-6.174c-1.077 1.155-4.527 4.564-4.4 6.238.06.72.675 1 .675 1zm6.712 4.52l6.164-6.17c-1.077 1.155-5.238 5.267-4.937 7.28.166 1.108.486 1.48.486 1.48zm3.3 7.93l6.174-6.174c-1.077 1.155-5.712 5.778-5.975 7.542l-.332 2.426z"/></g></svg>