<?xml version="1.0" encoding="UTF-8" standalone="no"?>
<svg
   viewBox="0 0 41.188 31.755"
   height="120.02"
   width="155.669"
   version="1.1"
   id="svg8"
   xmlns="http://www.w3.org/2000/svg"
   xmlns:svg="http://www.w3.org/2000/svg">
  <defs
     id="defs12" />
  <g
     transform="matrix(.771114 .771114 -.771114 .771114 222.37538 -212.924605)"
     fill="#00ff00"
     id="g6">
    <path
       d="m 18.73,287.873 c 0,-0.336 0.13,-0.672 0.395,-0.936 0.528,-0.528 1.346,-0.528 1.873,0 0.527,0.528 0.526,1.344 -0.002,1.872 a 1.3,1.3 0 0 1 -1.87,0 1.32,1.32 0 0 1 -0.396,-0.936 z"
       id="path880">
      <animate attributeName="opacity" dur="1.25s" keyTimes="0;0.1;0.5;0.6;1" values="0;1;1;0;0" repeatCount="indefinite" />
   </path>
    <path
       d="m 7.5,287.873 c 0,-0.336 0.132,-0.672 0.395,-0.936 0.528,-0.528 1.346,-0.528 1.873,0 0.527,0.528 0.526,1.344 -0.002,1.872 a 1.3,1.3 0 0 1 -1.871,0 1.32,1.32 0 0 1 -0.397,-0.936 z"
       id="path878">
       <animate attributeName="opacity" dur="0.5s" keyTimes="0;0.1;0.5;0.6;1" values="0;1;1;0;0" repeatCount="indefinite" />
   </path>
    <path
       d="m 7.5,276.643 c 0,-0.336 0.132,-0.672 0.395,-0.936 0.528,-0.528 1.345,-0.528 1.873,0 0.528,0.528 0.526,1.344 -0.002,1.872 a 1.3,1.3 0 0 1 -1.871,0 1.32,1.32 0 0 1 -0.396,-0.936 z"
       id="path876">
       <animate attributeName="opacity" dur="0.75s" keyTimes="0;0.1;0.5;0.6;1" values="0;1;1;0;0" repeatCount="indefinite" />
   </path>
    <path
       id="path874"
       style="stroke-width:4.12159"
       d="M 59.978516 0.001953125 A 60.010385 60.010385 0 0 0 16.9375 18.199219 L 17.017578 18.224609 C 6.1439297 29.418842 0.060546875 44.41388 0.060546875 60.023438 A 60.010385 60.010385 0 0 0 60.060547 120.02344 C 74.375844 120.01178 88.086011 114.87961 98.826172 105.76172 L 102.82031 102.72852 C 108.72781 98.353992 135.70989 98.389433 142.21484 98.162109 L 106.22656 98.162109 L 106.18164 98.203125 L 75.392578 98.203125 C 73.122256 104.5303 67.054754 109.11719 59.990234 109.11719 A 16.445153 16.445153 0 0 1 43.625 92.751953 A 16.445153 16.445153 0 0 1 59.990234 76.388672 C 67.048925 76.394501 73.114443 80.971622 75.384766 87.292969 L 113.42773 87.292969 A 60.010385 60.010385 0 0 0 117.77734 76.041016 C 118.19401 75.099268 118.89107 73.828432 120.0625 72.244141 C 125.05196 65.500205 149.16301 65.643339 155.66797 65.416016 L 119.7207 65.433594 L 119.71289 65.470703 L 42.660156 65.470703 C 40.389834 71.79205 34.326239 76.382812 27.261719 76.382812 A 16.445153 16.445153 0 0 1 10.896484 60.017578 C 10.899399 55.532307 12.747017 51.440483 15.716797 48.470703 C 18.686576 45.500924 22.773534 43.654297 27.261719 43.654297 C 34.32041 43.660126 40.383975 48.237247 42.654297 54.558594 L 119.68555 54.556641 A 60.010385 60.010385 0 0 0 117.1875 42.167969 C 117.04128 41.226039 117.03582 39.568113 118.31641 38.054688 C 122.82499 32.805842 142.81536 32.924589 149.32031 32.697266 L 113.33203 32.697266 L 113.3457 32.732422 L 75.378906 32.730469 C 73.108584 39.051815 67.043036 43.642578 59.978516 43.642578 A 16.445153 16.445153 0 0 1 43.613281 27.277344 C 43.616196 22.792073 45.458947 18.707069 48.431641 15.734375 A 16.321506 16.321506 0 0 1 59.978516 10.912109 C 67.043036 10.912109 73.102725 15.497013 75.373047 21.818359 L 106.14844 21.818359 A 60.010385 60.010385 0 0 0 59.978516 0.001953125 z "
       transform="matrix(0.17156155,-0.17156155,0.17156155,0.17156155,-6.1282393,282.25374)" />
  </g>
</svg>
