<svg xmlns="http://www.w3.org/2000/svg" width="1000.706" height="120" viewBox="0 0 264.77 31.75" xmlns:v="https://vecta.io/nano"><g transform="matrix(.36351 0 0 .36351 -19.24 -18.505)" fill="#a00"><path d="M214.117 113.976q-6.98 8.405-18.213 8.405-5.077 0-9.456-1.847-4.38-1.847-7.615-5.03-3.173-3.247-5.013-7.577-1.84-4.33-1.84-9.36 0-5.03 1.84-9.36 1.84-4.33 5.013-7.513 3.236-3.247 7.615-5.094 4.38-1.847 9.456-1.847 5.584 0 9.646 1.9 4.125 1.9 7.488 5.54l-6.917 6.75q-1.777-2.038-4.252-3.375-2.475-1.4-5.902-1.4-2.983 0-5.584 1.02-2.538 1.02-4.442 2.93-1.904 1.9-2.983 4.584-1.08 2.6-1.08 5.858 0 3.247 1.08 5.922 1.08 2.6 2.983 4.52 1.904 1.9 4.442 2.93 2.602 1.02 5.584 1.02 3.617 0 6.283-1.464 2.665-1.464 4.823-4.202zm18.297-13.816L217.12 75.772h11.93l7.996 13.37h.635l7.615-13.37h12.057l-15.04 24.387v21.203h-9.9zm30.284-24.388h18.467q3.046 0 5.648.955 2.665.955 4.57 2.547 1.904 1.592 2.983 3.757 1.08 2.1 1.08 4.393 0 3.757-1.84 6.24-1.777 2.483-4.252 3.693v.637q3.617 1.337 5.648 4.075 2.094 2.738 2.094 6.75 0 2.93-1.206 5.285-1.142 2.292-3.236 3.948-2.03 1.592-4.886 2.483-2.792.828-6.092.828H262.7zm17.515 18.083q2.665 0 4.125-1.2 1.46-1.2 1.46-3.438 0-2.23-1.46-3.438-1.46-1.2-3.87-1.2h-7.87v9.296zm.825 18.593q6.156 0 6.156-5.094 0-5.094-6.4-5.094h-8.186v10.188zm32.585-27.252v8.66h18.023v9.424h-18.023v8.66h20.053v9.424h-29.953v-45.6h29.953v9.424zm27.904-9.424h17.134q3.68 0 6.6 1.146 2.92 1.082 4.886 3.056 2.03 1.974 3.046 4.712 1.08 2.674 1.08 5.858 0 2.23-.762 4.14-.698 1.9-1.967 3.566-1.206 1.592-2.856 2.865-1.65 1.2-3.554 2.038v.573l11.867 17v.637h-11.296l-11.486-16.428h-2.792v16.428h-9.9zm17.134 19.993q2.665 0 4.188-1.528 1.523-1.592 1.523-3.884 0-2.292-1.46-3.82-1.396-1.592-4.252-1.592h-7.234v10.824zm23.52-19.993h9.9v36.166h19.038v9.424H382.18zm44.977 9.424v8.66h18.023v9.424h-18.023v8.66H447.2v9.424h-29.953v-45.6H447.2v9.424zm41.103-9.424h11.423l17.007 45.6h-10.915l-3.5-10.188H465.66l-3.5 10.188h-10.915zm10.852 26.36l-3.3-9.55-1.523-5.603h-.635l-1.523 5.603-3.3 9.55zm22.924-26.36H532v9.424h-20.053v9.17h18.023v9.424h-18.023v17.574h-9.9zm31.994 45.6z"/><path d="M567.012 122.38q-6.346 0-10.98-3.375-4.57-3.438-6.473-9.806l9.33-3.693q.825 3.247 2.73 5.35 1.904 2.1 5.394 2.1 1.142 0 2.158-.255 1.08-.255 1.84-.764.825-.573 1.333-1.4.508-.828.508-1.9 0-1.082-.444-1.974-.38-.955-1.333-1.72-.952-.828-2.538-1.592-1.586-.828-3.998-1.72l-2.792-1.02q-1.777-.637-3.68-1.72-1.84-1.146-3.363-2.738-1.523-1.592-2.475-3.63-.952-2.1-.952-4.648 0-2.738 1.08-5.158 1.08-2.42 3.046-4.14 1.967-1.783 4.76-2.802 2.792-1.02 6.156-1.02 3.554 0 6.092.955 2.538.9 4.315 2.356 1.777 1.4 2.792 3.184 1.08 1.783 1.65 3.438l-8.567 3.63q-.698-2.038-2.22-3.247-1.523-1.273-3.935-1.273-2.538 0-4.06 1.082-1.46 1.02-1.46 2.674 0 1.72 1.523 3.056 1.523 1.337 5.394 2.674l2.792.955q5.775 1.974 8.948 5.285 3.173 3.3 3.173 8.914 0 3.566-1.46 6.176-1.396 2.6-3.68 4.33-2.22 1.72-5.077 2.547-2.792.9-5.52.9zm31.804-1.018V85.196h-12.692v-9.424h35.284v9.424h-12.692v36.166zm45.724 1.018q-4.125 0-7.488-1.273-3.363-1.337-5.7-3.884-2.348-2.547-3.617-6.176-1.27-3.693-1.27-8.405v-26.87h9.9v27.507q0 4.202 2.094 6.94 2.094 2.738 6.092 2.738 3.998 0 6.092-2.738 2.094-2.738 2.094-6.94V75.772h9.9v26.87q0 4.33-1.27 7.96-1.27 3.63-3.617 6.24-2.348 2.6-5.7 4.075-3.363 1.464-7.488 1.464zm26.186-46.608h16.055q5.458 0 9.836 1.655 4.38 1.655 7.425 4.648 3.046 2.993 4.633 7.195 1.65 4.202 1.65 9.296 0 5.094-1.65 9.296-1.587 4.202-4.633 7.195-3.046 2.993-7.425 4.648-4.38 1.655-9.836 1.655h-16.055zm15.548 36.166q3.68 0 6.346-.955 2.665-1.02 4.38-2.802 1.777-1.783 2.602-4.202.825-2.483.825-5.412 0-2.93-.825-5.35-.825-2.483-2.602-4.266-1.713-1.783-4.38-2.738-2.665-1.02-6.346-1.02h-5.648v26.743zm30.932-36.166h9.9v45.6h-9.9zm40.17 46.608q-5.14 0-9.52-1.847-4.38-1.847-7.615-5.03-3.173-3.247-5.013-7.577-1.777-4.33-1.777-9.36 0-5.03 1.777-9.36 1.84-4.33 5.013-7.513 3.236-3.247 7.615-5.094 4.38-1.847 9.52-1.847 5.14 0 9.52 1.847 4.38 1.847 7.552 5.094 3.236 3.184 5.013 7.513 1.84 4.33 1.84 9.36 0 5.03-1.84 9.36-1.777 4.33-5.013 7.577-3.173 3.184-7.552 5.03-4.38 1.847-9.52 1.847zm0-9.424q2.92 0 5.458-1.02 2.602-1.02 4.506-2.93 1.904-1.9 2.983-4.52 1.08-2.674 1.08-5.922 0-3.247-1.08-5.858-1.08-2.674-2.983-4.584-1.904-1.9-4.506-2.93-2.538-1.02-5.458-1.02-2.983 0-5.52 1.02-2.538 1.02-4.442 2.93-1.904 1.9-2.983 4.584-1.08 2.6-1.08 5.858 0 3.247 1.08 5.922 1.08 2.6 2.983 4.52 1.904 1.9 4.442 2.93 2.538 1.02 5.52 1.02z" fill="#000"/><g transform="matrix(2.1213 2.1213 -2.1213 2.1213 664.7 -534.82)"><path d="M-.1 282.47a14.56 14.56 0 0 1 4.262-10.506 14.56 14.56 0 0 1 11.664-4.178l-5.28 5.28c-1.474-.695-3.3-.442-4.512.77a3.96 3.96 0 0 0-1.154 2.808c0 1.02.385 2.037 1.154 2.807 1.54 1.54 4.075 1.54 5.615 0 1.212-1.212 1.465-3.04.77-4.514l6.518-6.517a14.56 14.56 0 0 1 4.828 2.66l-13.216 13.216c-1.474-.695-3.3-.44-4.512.77-.77.77-1.154 1.788-1.154 2.807s.385 2.038 1.154 2.808c1.54 1.54 4.075 1.54 5.615 0 1.212-1.212 1.465-3.04.77-4.514l13.22-13.22a14.56 14.56 0 0 1 2.665 4.823l-6.527 6.527c-1.474-.695-3.3-.44-4.512.77-1.54 1.54-1.54 4.075 0 5.615s4.076 1.54 5.615 0c1.212-1.212 1.466-3.04.77-4.515l5.29-5.29c.415 4.32-1.12 8.602-4.187 11.674a14.56 14.56 0 0 1-20.587 0c-2.678-2.678-4.207-6.294-4.262-10.08zm7.61-5.827c0-.336.132-.672.395-.936.528-.528 1.345-.528 1.873 0s.526 1.344-.002 1.872a1.3 1.3 0 0 1-1.871 0c-.264-.264-.396-.6-.396-.936zm0 11.23c0-.336.132-.672.395-.936.528-.528 1.346-.528 1.873 0s.526 1.344-.002 1.872a1.3 1.3 0 0 1-1.871 0 1.32 1.32 0 0 1-.397-.936zm11.23 0c0-.336.13-.672.395-.936.528-.528 1.346-.528 1.873 0s.526 1.344-.002 1.872a1.3 1.3 0 0 1-1.87 0 1.32 1.32 0 0 1-.396-.936z"/><path d="M18.925 268.42l6.174-6.174c-1.077 1.155-4.527 4.564-4.4 6.238.06.72.675 1 .675 1zm6.712 4.52l6.164-6.17c-1.077 1.155-5.238 5.267-4.937 7.28.166 1.108.486 1.48.486 1.48zm3.29 7.93l6.174-6.174c-1.077 1.155-5.712 5.778-5.975 7.542l-.332 2.426z"/></g></g></svg>