<svg xmlns="http://www.w3.org/2000/svg" viewBox="0 0 47.625 47.625" height="180" width="180"><circle cx="23.813" cy="23.813" r="23.813" fill="#ccc"/><path d="M23.597 6.117c-.468.007-.96.04-1.47.1-2.686.314-4.812 1.386-6.044 3.047a7.82 7.82 0 0 0-1.209 2.291c-.405 1.21-.49 1.836-.49 3.657-.002 1.68.057 2.313.352 3.757.22 1.08.216 1.278-.04 1.77-.307.588-.386 1.14-.283 2 .17 1.41.69 2.488 1.48 3.068.218.16.29.292.51.924a9.49 9.49 0 0 0 1.777 3.163l.434.523-.025 1.604c-.027 1.817-.028 1.82-.588 2.34-.664.618-1.395.987-3.546 1.787l-5.583 2.398-.452.284a21.43 21.43 0 0 0 15.46 6.597 21.43 21.43 0 0 0 15.445-6.609c-.075.001-.357-.144-.63-.32-.68-.44-2.277-1.195-3.414-1.615l-2.302-.85c-2.363-.87-3.42-1.484-3.758-2.18-.134-.276-.15-.443-.166-1.87l-.02-1.567.38-.453c.797-.954 1.517-2.243 1.89-3.383.14-.43.22-.545.672-.98.377-.364.564-.612.714-.942a5.55 5.55 0 0 0 .547-2.167c.046-.844-.02-1.206-.337-1.83l-.208-.41.21-.88c.46-1.91.6-3.182.54-4.92-.042-1.273-.127-1.83-.407-2.69-.6-1.84-1.932-3.2-3.674-3.724-.53-.162-.697-.252-1.07-.577-1.057-.92-2.662-1.376-4.69-1.344z" fill="#999"/></svg>