<?xml version="1.0" encoding="UTF-8" standalone="no"?>
<!-- Created with Inkscape (http://www.inkscape.org/) -->

<svg
   width="127mm"
   height="127mm"
   viewBox="0 0 127 127"
   version="1.1"
   id="svg5226"
   xmlns="http://www.w3.org/2000/svg"
   xmlns:svg="http://www.w3.org/2000/svg">
  <defs
     id="defs5223" />
    <path
       id="path2148"
       d="M 302.20703 0 L 268.51758 61.753906 C 260.44997 60.522218 252.25987 60.049457 241.4375 60.003906 C 228.08519 59.947706 218.44624 60.530995 208.58398 62.269531 L 173.87305 1.0507812 L 175.57617 71.507812 C 156.97864 78.652171 139.58809 89.08017 124.26953 101.99023 L 63.257812 66.126953 L 100.09961 126.51758 C 87.890727 141.46717 78.077101 158.28525 71.453125 176.25391 C 71.197102 176.94841 70.96803 177.64772 70.720703 178.34375 L 0 177.79297 L 62.212891 211.73438 C 59.089546 231.63951 59.308941 251.69833 62.724609 271.1582 L 1.0507812 306.12695 L 71.925781 304.41211 C 78.91434 322.60541 88.924075 339.79236 101.84375 355.24805 C 101.92765 355.34846 102.01548 355.44472 102.09961 355.54492 L 66.126953 416.74219 L 126.72461 379.77344 C 142.20408 392.33402 159.62617 402.20216 178.3457 409.05664 L 177.79297 480 L 211.72266 417.80859 C 215.75338 418.46917 219.81857 419.00944 223.91992 419.40625 C 237.59048 420.72889 254.9827 419.77458 271.06641 417.11523 L 306.12695 478.94922 L 304.41211 407.99609 C 315.80311 403.43254 328.71535 397.09626 336.55859 392.03906 C 343.24294 387.72911 349.59737 383.01047 355.60938 377.93945 L 416.74219 413.87305 L 379.79883 353.31445 C 392.38618 337.83458 402.38613 320.38881 409.30664 301.65625 L 480 302.20703 L 417.9375 268.34766 C 420.78459 249.09818 420.67561 227.5531 417.60156 208.65625 L 478.94922 173.87305 L 408.48438 175.57617 C 401.23147 156.83963 390.85062 139.479 378.04102 124.21484 L 413.87305 63.257812 L 353.58398 100.03711 C 338.10292 87.365129 320.55775 77.264911 301.6582 70.449219 L 302.20703 0 z M 240 105 A 135 135 0 0 1 375 240 A 135 135 0 0 1 240 375 A 135 135 0 0 1 105 240 A 135 135 0 0 1 240 105 z "
       transform="scale(0.26458333)" />
</svg>
