<svg xmlns="http://www.w3.org/2000/svg" height="400" width="400" viewBox="0 0 400 400" fill="none" xmlns:v="https://vecta.io/nano">
  <path
    d="M200 0C89.543 0 0 89.543 0 200s89.543 200 200 200 200-89.543 200-200S310.457 0 200 0zM96.013 165.648h45.324V301.83H96.013zm48.3-42.126C144.03 110.17 134.48 100 118.975 100s-25.642 10.17-25.642 23.523c0 13.076 9.837 23.538 25.053 23.538h.3c15.804 0 25.647-10.463 25.647-23.538zM252.61 162.45c29.826 0 52.186 19.468 52.186 61.297l-.002 78.082H259.47v-72.858c0-18.3-6.56-30.787-22.967-30.787-12.522 0-19.98 8.418-23.256 16.55-1.198 2.913-1.493 6.973-1.493 11.043v76.055h-45.33v-136.18h45.33v19.288c6.015-9.273 16.79-22.5 40.853-22.5z"
    fill="#000"
    fill-rule="evenodd"/>
</svg>
