<svg xmlns="http://www.w3.org/2000/svg" width="400" height="400" viewBox="0 0 400 400" xmlns:v="https://vecta.io/nano">
  <path
    fill="#000000"
    d="M195.474 399.467c-2.153-.522-5.676-1.89-7.83-3.04C181.955 393.4 4.99 215.73 2.3 210.355c-3.438-6.87-2.976-16.885 1.096-23.72 1.85-3.106 30.4-32.634 63.466-65.616l60.1-59.968 22.698 22.654c22.226 22.183 22.674 22.738 21.534 26.71-1.874 6.53-1.3 14.078 1.546 20.35 3.223 7.1 5.6 9.85 11.97 13.9l4.893 3.107v108.845l-6.198 4.56c-13.485 9.924-17.205 27.51-8.72 41.223 13.178 21.3 45.067 18.81 54.718-4.273 2.675-6.397 2.438-18.16-.497-24.616-1.317-2.896-5.127-7.67-8.467-10.608l-6.074-5.342.682-107.02 20.45 19.5c20.287 19.333 20.442 19.524 19.246 23.69-3.052 10.634-.265 20.146 8.554 29.2 11.88 12.186 29.16 13.057 41.316 2.084 7.5-6.77 10.695-13.686 10.695-23.146 0-9.467-3.196-16.375-10.714-23.162-6.362-5.743-14.053-8.02-23.718-7.02l-7.24.75-42.935-42.963.435-7.62c.792-13.853-4.827-24.636-15.893-30.505-4.25-2.253-7.6-2.87-15.5-2.86l-10.1.013-45.03-45.05L162.87 25.09C172.908 15 183.664 5.233 186.773 3.387c6.84-4.064 16.866-4.524 23.737-1.1 6.338 3.168 183.408 179.923 186.833 186.502 3.367 6.467 3.56 16.634.433 22.86-2.94 5.854-177.142 180.41-184.034 184.408-6.05 3.5-12.705 4.748-18.268 3.4z"/>
</svg>
