<?xml version="1.0" encoding="UTF-8" standalone="no"?>
<svg
   viewBox="0 0 50.80071 50.799534"
   height="192"
   width="192"
   version="1.1"
   id="svg8"
   sodipodi:docname="favicon.svg"
   inkscape:export-filename="/home/k-majick/Documents/personal-nuxt3/public/favicon-228.png"
   inkscape:export-xdpi="114"
   inkscape:export-ydpi="114"
   inkscape:version="1.1 (c68e22c387, 2021-05-23)"
   xmlns:inkscape="http://www.inkscape.org/namespaces/inkscape"
   xmlns:sodipodi="http://sodipodi.sourceforge.net/DTD/sodipodi-0.dtd"
   xmlns="http://www.w3.org/2000/svg"
   xmlns:svg="http://www.w3.org/2000/svg">
  <sodipodi:namedview
     id="namedview9"
     pagecolor="#505050"
     bordercolor="#ffffff"
     borderopacity="1"
     inkscape:pageshadow="0"
     inkscape:pageopacity="0"
     inkscape:pagecheckerboard="1"
     showgrid="false"
     inkscape:zoom="3.9322917"
     inkscape:cx="78.580132"
     inkscape:cy="95.999999"
     inkscape:window-width="2236"
     inkscape:window-height="1600"
     inkscape:window-x="2553"
     inkscape:window-y="354"
     inkscape:window-maximized="0"
     inkscape:current-layer="svg8" />
  <defs
     id="defs12" />
  <g
     transform="matrix(0.95145776,0.95145776,-0.95145776,0.95145776,274.3635,-256.90206)"
     fill="#c10000"
     id="g6">
    <path
       d="m 18.73,287.873 c 0,-0.336 0.13,-0.672 0.395,-0.936 0.528,-0.528 1.346,-0.528 1.873,0 0.527,0.528 0.526,1.344 -0.002,1.872 a 1.3,1.3 0 0 1 -1.87,0 1.32,1.32 0 0 1 -0.396,-0.936 z"
       id="path880">
      <animate
         attributeName="opacity"
         dur="1.25s"
         keyTimes="0;0.1;0.5;0.6;1"
         values="0;1;1;0;0"
         repeatCount="indefinite" />
    </path>
    <path
       d="m 7.5,287.873 c 0,-0.336 0.132,-0.672 0.395,-0.936 0.528,-0.528 1.346,-0.528 1.873,0 0.527,0.528 0.526,1.344 -0.002,1.872 a 1.3,1.3 0 0 1 -1.871,0 1.32,1.32 0 0 1 -0.397,-0.936 z"
       id="path878">
      <animate
         attributeName="opacity"
         dur="0.5s"
         keyTimes="0;0.1;0.5;0.6;1"
         values="0;1;1;0;0"
         repeatCount="indefinite" />
    </path>
    <path
       d="m 7.5,276.643 c 0,-0.336 0.132,-0.672 0.395,-0.936 0.528,-0.528 1.345,-0.528 1.873,0 0.528,0.528 0.526,1.344 -0.002,1.872 a 1.3,1.3 0 0 1 -1.871,0 1.32,1.32 0 0 1 -0.396,-0.936 z"
       id="path876">
      <animate
         attributeName="opacity"
         dur="0.75s"
         keyTimes="0;0.1;0.5;0.6;1"
         values="0;1;1;0;0"
         repeatCount="indefinite" />
    </path>
    <path
       id="path874"
       style="stroke-width:4.12159"
       d="M 59.978516,0.00195313 A 60.010385,60.010385 0 0 0 16.9375,18.199219 l 0.08008,0.02539 C 6.1439297,29.418842 0.06054687,44.41388 0.06054687,60.023438 A 60.010385,60.010385 0 0 0 60.060547,120.02344 c 14.315297,-0.0117 28.025464,-5.14383 38.765625,-14.26172 l 3.994138,-3.0332 c 5.9075,-4.374528 32.88958,-4.339087 39.39453,-4.566411 h -35.98828 l -0.0449,0.04102 H 75.392578 C 73.122256,104.5303 67.054754,109.11719 59.990234,109.11719 A 16.445153,16.445153 0 0 1 43.625,92.751953 16.445153,16.445153 0 0 1 59.990234,76.388672 c 7.058691,0.0058 13.124209,4.58295 15.394532,10.904297 h 38.042964 a 60.010385,60.010385 0 0 0 4.34961,-11.251953 c 0.41667,-0.941748 1.11373,-2.212584 2.28516,-3.796875 4.98946,-6.743936 29.10051,-6.600802 35.60547,-6.828125 l -35.94727,0.01758 -0.008,0.03711 H 42.660156 C 40.389834,71.79205 34.326239,76.382812 27.261719,76.382812 A 16.445153,16.445153 0 0 1 10.896484,60.017578 c 0.0029,-4.485271 1.850533,-8.577095 4.820313,-11.546875 2.969779,-2.969779 7.056737,-4.816406 11.544922,-4.816406 7.058691,0.0058 13.122256,4.58295 15.392578,10.904297 l 77.031253,-0.002 A 60.010385,60.010385 0 0 0 117.1875,42.167969 c -0.14622,-0.94193 -0.15168,-2.599856 1.12891,-4.113281 4.50858,-5.248846 24.49895,-5.130099 31.0039,-5.357422 h -35.98828 l 0.0137,0.03516 -37.966794,-0.002 c -2.270322,6.321346 -8.33587,10.912109 -15.40039,10.912109 A 16.445153,16.445153 0 0 1 43.613281,27.277344 c 0.0029,-4.485271 1.845666,-8.570275 4.81836,-11.542969 a 16.321506,16.321506 0 0 1 11.546875,-4.822266 c 7.06452,0 13.124209,4.584904 15.394531,10.90625 H 106.14844 A 60.010385,60.010385 0 0 0 59.978516,0.00195313 Z"
       transform="matrix(0.17156155,-0.17156155,0.17156155,0.17156155,-6.1282393,282.25374)" />
  </g>
</svg>
