<?xml version="1.0" standalone="no"?>
<!DOCTYPE svg PUBLIC "-//W3C//DTD SVG 20010904//EN"
 "http://www.w3.org/TR/2001/REC-SVG-20010904/DTD/svg10.dtd">
<svg version="1.0" xmlns="http://www.w3.org/2000/svg"
 width="700.000000pt" height="700.000000pt" viewBox="0 0 700.000000 700.000000"
 preserveAspectRatio="xMidYMid meet">
<metadata>
Created by potrace 1.14, written by Peter Selinger 2001-2017
</metadata>
<g transform="translate(0.000000,700.000000) scale(0.100000,-0.100000)"
fill="#000000" stroke="none">
<path d="M2538 6195 c-2 -2 -46 -6 -98 -10 -52 -3 -97 -8 -100 -10 -3 -1 -27
-5 -55 -9 -155 -18 -485 -111 -635 -178 -239 -107 -393 -196 -585 -339 -351
-261 -666 -667 -847 -1089 -106 -247 -178 -530 -205 -796 -10 -100 -10 -435 0
-534 71 -715 434 -1384 997 -1836 364 -292 804 -488 1256 -560 20 -3 46 -8 58
-10 94 -19 514 -26 656 -10 74 8 261 39 310 51 14 3 34 8 45 10 146 31 382
118 565 210 209 104 294 160 627 418 125 97 159 115 273 148 66 20 244 53 335
64 28 3 65 7 83 10 19 2 68 7 110 10 43 4 91 8 107 10 17 2 91 7 165 11 74 3
155 8 180 9 25 2 96 3 159 4 63 0 112 4 108 7 -3 4 -277 6 -609 6 -332 -1
-928 -1 -1325 -1 l-722 -1 -35 -74 c-144 -300 -480 -467 -804 -400 -287 59
-501 270 -576 567 -19 77 -15 250 8 336 131 486 694 705 1108 432 122 -81 224
-200 278 -325 l19 -46 856 0 856 0 35 78 c20 42 42 91 49 107 20 45 72 192 92
260 36 125 125 258 208 310 28 17 71 41 98 53 106 49 357 108 547 128 25 2 55
6 67 9 13 2 67 7 120 11 54 4 114 8 133 9 19 2 59 4 88 4 28 1 52 4 52 9 0 5
-4331 7 -4656 2 -16 0 -26 -11 -38 -44 -25 -66 -86 -154 -152 -223 -212 -217
-537 -279 -819 -155 -33 14 -62 29 -65 32 -3 3 -18 12 -35 20 -46 23 -196 179
-234 243 -18 31 -47 96 -64 144 -28 79 -32 101 -33 216 -2 102 2 142 18 200
128 455 624 681 1038 472 72 -36 156 -99 208 -154 41 -44 113 -151 137 -206
10 -22 20 -42 23 -45 2 -3 782 -5 1733 -5 l1730 0 -6 55 c-8 66 -11 86 -30
200 -8 50 -33 153 -57 235 -11 39 -20 89 -20 113 2 88 59 165 160 216 40 20
153 61 159 58 2 0 17 4 35 9 40 12 165 36 228 44 25 3 61 7 80 10 105 13 142
16 404 30 49 3 91 7 93 9 2 2 -680 3 -1517 2 l-1520 -1 -30 -63 c-160 -339
-544 -505 -894 -388 -91 31 -153 65 -231 126 -65 52 -81 69 -136 145 -141 194
-177 458 -92 684 48 131 169 281 290 359 367 236 857 102 1051 -288 20 -41 38
-77 40 -79 4 -7 1351 -7 1369 0 23 8 -271 302 -409 407 -248 191 -522 337
-811 433 -148 49 -369 100 -497 115 -14 1 -47 5 -75 9 -49 6 -422 15 -427 10z"/>
<path d="M2629 5210 c-152 -41 -226 -226 -146 -363 31 -51 56 -73 115 -100
136 -59 296 21 333 167 45 180 -122 344 -302 296z"/>
<path d="M6453 4723 c9 -2 25 -2 35 0 9 3 1 5 -18 5 -19 0 -27 -2 -17 -5z"/>
<path d="M1173 3739 c-54 -10 -80 -24 -121 -63 -130 -123 -81 -349 88 -406
117 -40 244 10 298 116 62 121 16 272 -100 327 -62 30 -107 37 -165 26z"/>
<path d="M6600 3249 c0 -4 20 -6 45 -5 25 0 45 3 45 7 0 3 -20 5 -45 5 -25 -1
-45 -4 -45 -7z"/>
<path d="M6708 3253 c7 -3 16 -2 19 1 4 3 -2 6 -13 5 -11 0 -14 -3 -6 -6z"/>
<path d="M2659 2269 c-116 -17 -194 -99 -206 -213 -15 -145 85 -264 226 -271
79 -3 137 20 191 75 162 166 18 444 -211 409z"/>
<path d="M6066 1779 c2 -4 13 -7 24 -6 23 2 17 10 -10 12 -10 1 -17 -2 -14 -6z"/>
</g>
</svg>
