<?xml version="1.0" standalone="no"?>
<!DOCTYPE svg PUBLIC "-//W3C//DTD SVG 20010904//EN"
 "http://www.w3.org/TR/2001/REC-SVG-20010904/DTD/svg10.dtd">
<svg version="1.0" xmlns="http://www.w3.org/2000/svg"
 width="400.000000pt" height="400.000000pt" viewBox="0 0 400.000000 400.000000"
 preserveAspectRatio="xMidYMid meet">
<metadata>
Created by potrace 1.11, written by Peter Selinger 2001-2013
</metadata>
<g transform="translate(0.000000,400.000000) scale(0.100000,-0.100000)"
fill="#000000" stroke="none">
<path d="M1507 3534 c-1 -1 -42 -4 -92 -8 -49 -3 -102 -8 -117 -11 -16 -3 -38
-7 -50 -9 -120 -22 -282 -78 -408 -143 -451 -230 -761 -671 -828 -1178 -9 -66
-9 -304 0 -380 41 -346 213 -687 466 -925 105 -98 97 -91 182 -152 138 -98
353 -195 520 -235 264 -62 558 -53 815 27 197 60 339 138 550 300 129 99 161
115 270 134 17 3 41 8 55 10 88 17 288 34 424 35 44 1 77 4 74 7 -6 5 -193 6
-998 4 l-435 -1 -19 -42 c-43 -95 -127 -169 -237 -211 -80 -30 -207 -30 -279
-1 -103 42 -184 115 -230 205 -36 72 -43 101 -45 184 -9 304 315 516 590 388
78 -37 162 -117 199 -190 l26 -52 489 0 489 0 32 77 c18 43 45 115 61 160 33
97 76 165 127 197 42 26 145 63 200 72 20 3 40 8 43 9 3 2 28 7 55 11 27 3 56
8 64 9 24 5 213 18 234 17 10 0 16 1 13 4 -5 5 -2649 7 -2651 2 -13 -35 -58
-105 -85 -135 -206 -225 -558 -171 -689 105 -29 61 -35 85 -38 155 -6 180 85
326 252 404 53 25 70 28 164 28 98 0 110 -2 173 -32 81 -38 164 -117 201 -192
l26 -51 986 0 986 1 -6 62 c-7 65 -13 94 -41 214 -9 40 -14 84 -11 97 26 105
185 156 559 180 129 9 -47 11 -766 9 -447 -1 -825 -2 -842 -3 -25 0 -33 -7
-47 -38 -46 -100 -159 -194 -268 -224 -145 -40 -326 15 -422 126 -234 272 -46
697 307 697 160 0 298 -82 374 -221 l30 -55 391 -1 c214 0 390 2 390 6 0 16
-181 187 -264 250 -181 135 -446 251 -636 276 -25 3 -48 8 -51 10 -11 6 -256
23 -262 18z"/>
<path d="M1510 2970 c-70 -19 -113 -79 -106 -150 8 -77 57 -123 135 -124 169
-3 194 236 29 273 -18 4 -44 5 -58 1z"/>
<path d="M630 2114 c-86 -54 -90 -184 -7 -239 110 -72 255 45 208 167 -29 76
-134 114 -201 72z"/>
<path d="M1474 1273 c-87 -43 -93 -184 -9 -239 109 -71 253 46 206 168 -30 77
-120 110 -197 71z"/>
</g>
</svg>
